<?xml version="1.0" standalone="no"?>
<!DOCTYPE svg PUBLIC "-//W3C//DTD SVG 20010904//EN"
 "http://www.w3.org/TR/2001/REC-SVG-20010904/DTD/svg10.dtd">
<svg version="1.0" xmlns="http://www.w3.org/2000/svg"
 width="240.000000pt" height="240.000000pt" viewBox="0 0 240.000000 240.000000"
 preserveAspectRatio="xMidYMid meet">
<metadata>
Created by potrace 1.11, written by Peter Selinger 2001-2013
</metadata>
<g transform="translate(0.000000,240.000000) scale(0.100000,-0.100000)"
fill="#000000" stroke="none">
<path d="M1176 2393 c-12 -12 -6 -33 9 -33 8 0 15 6 15 14 0 17 -14 28 -24 19z"/>
<path d="M1096 2381 c-7 -11 18 -33 27 -24 4 3 7 12 7 20 0 15 -26 18 -34 4z"/>
<path d="M1240 2376 c0 -8 4 -17 8 -20 13 -8 35 11 28 23 -10 16 -36 14 -36
-3z"/>
<path d="M1321 2380 c-16 -9 -6 -30 15 -30 15 0 20 25 6 34 -4 2 -14 1 -21 -4z"/>
<path d="M1020 2364 c0 -9 7 -14 17 -12 25 5 28 28 4 28 -12 0 -21 -6 -21 -16z"/>
<path d="M950 2355 c0 -10 7 -15 18 -13 21 4 19 22 -2 26 -10 2 -16 -3 -16
-13z"/>
<path d="M1387 2364 c-9 -10 2 -24 19 -24 8 0 14 7 14 15 0 15 -21 21 -33 9z"/>
<path d="M880 2341 c0 -12 6 -21 16 -21 9 0 14 7 12 17 -5 25 -28 28 -28 4z"/>
<path d="M1463 2345 c-7 -20 2 -29 21 -22 9 4 13 13 10 22 -8 19 -23 19 -31 0z"/>
<path d="M1160 2336 c-27 -33 18 -72 48 -42 13 13 14 20 6 34 -15 23 -38 26
-54 8z"/>
<path d="M810 2321 c0 -12 6 -21 16 -21 9 0 14 7 12 17 -5 25 -28 28 -28 4z"/>
<path d="M1060 2325 c-10 -12 -10 -18 0 -30 7 -8 18 -15 25 -15 19 0 36 25 29
44 -8 20 -38 21 -54 1z"/>
<path d="M1256 2324 c-7 -19 10 -44 29 -44 7 0 18 7 25 15 10 12 10 18 0 30
-16 20 -46 19 -54 -1z"/>
<path d="M1537 2333 c-13 -12 -7 -33 8 -33 8 0 15 9 15 20 0 20 -11 26 -23 13z"/>
<path d="M964 2315 c-9 -23 3 -45 26 -45 25 0 37 25 20 45 -16 19 -39 19 -46
0z"/>
<path d="M1360 2316 c-18 -22 -5 -48 22 -44 17 2 23 10 23 28 0 29 -26 38 -45
16z"/>
<path d="M740 2295 c0 -8 7 -15 15 -15 8 0 15 7 15 15 0 8 -7 15 -15 15 -8 0
-15 -7 -15 -15z"/>
<path d="M872 2298 c-16 -16 -15 -33 4 -48 22 -19 54 12 38 37 -14 22 -27 26
-42 11z"/>
<path d="M1462 2298 c-16 -16 -15 -33 4 -48 22 -19 54 12 38 37 -14 22 -27 26
-42 11z"/>
<path d="M1602 2294 c4 -21 22 -23 26 -1 2 10 -3 17 -13 17 -10 0 -15 -6 -13
-16z"/>
<path d="M670 2265 c0 -10 7 -15 18 -13 21 4 19 22 -2 26 -10 2 -16 -3 -16
-13z"/>
<path d="M776 2264 c-12 -12 -13 -20 -6 -35 12 -22 30 -25 48 -7 18 18 15 36
-7 48 -15 7 -23 6 -35 -6z"/>
<path d="M1554 2266 c-10 -8 -15 -20 -11 -30 10 -25 38 -32 53 -12 24 33 -9
66 -42 42z"/>
<path d="M1667 2274 c-9 -10 2 -24 19 -24 8 0 14 7 14 15 0 15 -21 21 -33 9z"/>
<path d="M604 2239 c-8 -14 11 -33 25 -25 6 4 11 14 11 22 0 16 -26 19 -36 3z"/>
<path d="M1734 2239 c-10 -17 13 -36 27 -22 12 12 4 33 -11 33 -5 0 -12 -5
-16 -11z"/>
<path d="M682 2228 c-18 -18 -15 -36 7 -48 28 -14 55 13 41 41 -12 22 -30 25
-48 7z"/>
<path d="M1640 2221 c-7 -15 -6 -23 6 -35 12 -12 20 -13 35 -6 22 12 25 30 7
48 -18 18 -36 15 -48 -7z"/>
<path d="M540 2196 c0 -10 9 -16 21 -16 24 0 21 23 -4 28 -10 2 -17 -3 -17
-12z"/>
<path d="M1797 2203 c-13 -12 -7 -23 13 -23 11 0 20 7 20 15 0 15 -21 21 -33
8z"/>
<path d="M1065 2186 c-47 -21 -69 -52 -72 -104 -2 -26 -6 -60 -9 -75 -6 -25 2
-37 78 -113 69 -68 83 -87 74 -100 -12 -16 -39 -15 -74 5 -30 16 -61 5 -72
-25 -10 -26 -49 -47 -63 -34 -4 4 -3 28 4 53 6 26 9 58 7 71 -3 16 -1 23 7 20
7 -3 16 14 23 43 10 43 9 51 -8 75 -11 15 -20 32 -20 38 0 13 -37 50 -50 50
-5 0 -19 -9 -29 -19 -18 -18 -23 -19 -73 -5 -29 7 -62 14 -74 14 -27 0 -57
-33 -60 -67 -4 -32 -28 -53 -61 -53 -32 0 -35 -54 -5 -100 9 -14 18 -34 19
-45 5 -33 34 -49 137 -74 59 -15 100 -31 104 -39 8 -22 -32 -50 -63 -45 -35 7
-56 -13 -53 -52 2 -34 -15 -65 -36 -65 -12 0 -43 95 -38 114 2 4 -1 13 -6 20
-6 6 -13 27 -17 46 -8 40 -31 70 -53 70 -9 0 -26 9 -38 21 -28 26 -59 18 -72
-19 -9 -26 -19 -31 -122 -58 -9 -2 -28 -30 -42 -62 -34 -73 -42 -108 -29 -116
6 -4 11 -16 11 -26 0 -11 12 -27 26 -37 14 -10 39 -29 57 -43 20 -16 45 -26
71 -27 23 -1 50 -3 61 -5 13 -2 20 3 20 12 0 19 104 51 122 38 18 -14 -4 -68
-28 -68 -10 0 -23 -9 -29 -20 -12 -22 -5 -60 11 -60 5 0 9 -13 9 -30 0 -20 -7
-33 -21 -41 -12 -6 -19 -7 -16 -2 4 6 -9 25 -28 43 -19 19 -35 40 -35 47 0 8
-10 18 -22 24 -13 5 -38 21 -57 34 -18 14 -38 22 -44 18 -6 -3 -30 -7 -55 -7
-52 -1 -75 -24 -55 -53 9 -15 5 -24 -25 -55 -28 -30 -33 -41 -24 -50 19 -19
14 -63 -8 -83 -36 -33 -18 -105 33 -131 16 -9 59 -17 97 -20 60 -4 71 -2 97
19 15 13 37 27 48 31 l20 7 -20 16 c-14 11 -15 14 -4 10 20 -7 96 67 80 77 -6
4 -11 11 -11 16 0 5 11 -2 25 -16 29 -29 32 -55 9 -89 -19 -29 -6 -61 30 -75
24 -9 38 -40 27 -58 -9 -15 -129 19 -124 35 6 17 -16 26 -31 14 -8 -7 -29 -9
-53 -5 -31 5 -42 2 -57 -15 -11 -12 -27 -21 -36 -21 -38 0 -53 -49 -24 -81 14
-15 14 -23 0 -77 -9 -33 -16 -65 -16 -71 0 -19 39 -51 63 -51 31 0 57 -30 57
-65 0 -27 1 -27 45 -22 25 2 54 12 64 21 10 9 27 16 38 16 29 0 54 33 56 74 1
21 8 38 17 42 13 4 12 8 -4 20 -16 11 -17 14 -4 14 16 0 42 75 32 92 -3 4 4 8
15 8 24 0 46 -36 42 -68 -4 -32 16 -52 51 -52 39 0 68 -16 68 -38 0 -13 -15
-21 -56 -31 -31 -7 -62 -15 -69 -18 -8 -2 -12 3 -12 14 1 10 -5 18 -13 18 -9
0 -14 -8 -13 -21 2 -16 -5 -24 -30 -30 -21 -7 -39 -22 -52 -45 -11 -20 -25
-45 -32 -56 -10 -16 -9 -24 3 -41 8 -12 23 -22 33 -22 13 0 23 -16 36 -62 22
-74 31 -88 57 -88 11 0 33 -10 50 -21 22 -16 39 -20 69 -16 45 6 87 30 96 55
3 9 17 29 31 44 21 23 24 33 18 67 -9 58 -24 91 -40 91 -8 0 -17 -8 -19 -17
-4 -16 -5 -16 -6 0 -1 11 7 21 19 24 23 6 23 6 9 55 -7 29 -15 38 -32 39 -13
1 -7 5 16 10 37 9 87 -4 73 -18 -10 -11 26 -43 47 -43 11 0 28 7 38 16 22 20
59 13 76 -15 10 -16 10 -19 0 -15 -7 2 -47 -31 -90 -74 l-76 -79 2 -67 c2 -46
8 -70 17 -77 19 -11 21 -11 40 1 11 7 24 0 51 -26 36 -36 37 -36 63 -19 22 15
32 16 52 7 13 -7 27 -19 30 -27 14 -36 104 -1 129 50 8 19 15 49 15 67 -1 18
1 43 5 56 6 19 -7 36 -79 111 -81 82 -86 90 -71 105 20 20 42 20 61 1 30 -29
84 -13 84 26 0 22 35 30 80 19 22 -5 27 -8 13 -9 -22 -1 -40 -38 -47 -93 -1
-13 -5 -30 -8 -38 -30 -76 -28 -112 8 -133 7 -4 11 -14 8 -21 -7 -18 22 -46
47 -46 10 0 24 8 30 19 11 17 16 17 63 5 99 -27 136 -13 141 50 2 25 44 59 66
53 32 -9 30 70 -3 110 -6 8 -13 24 -15 36 -5 30 -19 44 -53 51 -24 4 -29 10
-27 28 1 15 -3 23 -13 23 -8 0 -14 -8 -14 -17 2 -22 1 -22 -65 -2 -29 8 -59
13 -65 11 -16 -6 -14 27 3 47 8 10 29 16 52 16 43 0 62 21 52 59 -7 26 21 61
49 61 11 0 17 -4 13 -9 -3 -6 0 -30 6 -55 8 -34 15 -43 28 -40 13 5 13 4 -1
-6 -22 -13 -23 -30 -3 -30 8 0 12 -6 9 -15 -3 -8 0 -30 6 -50 9 -28 19 -37 41
-42 16 -3 34 -14 40 -24 19 -36 79 -18 79 23 0 11 10 20 28 24 15 4 32 10 37
14 6 5 23 10 40 12 21 2 33 11 44 33 8 17 19 39 24 49 21 44 25 75 12 112 -12
37 -48 73 -72 74 -7 0 -13 4 -13 10 0 5 -11 17 -25 26 -23 15 -29 15 -65 1
-32 -12 -38 -12 -33 -1 3 9 -2 14 -17 14 -15 0 -20 -5 -17 -14 4 -10 -8 -18
-46 -26 -29 -7 -57 -17 -63 -22 -15 -11 -26 16 -18 47 3 13 16 26 30 29 13 4
28 16 35 27 9 17 7 27 -9 49 -24 31 -20 60 10 79 11 7 18 8 14 3 -3 -5 12 -26
34 -47 22 -21 37 -42 34 -47 -3 -4 3 -11 13 -15 10 -3 30 -17 46 -32 22 -20
39 -26 87 -27 70 -3 95 13 85 54 -5 20 1 33 30 62 32 32 34 38 20 50 -22 18
-19 67 5 82 32 21 27 73 -12 112 -29 29 -41 34 -107 40 -72 6 -75 6 -103 -21
-16 -15 -37 -28 -46 -28 -9 0 -17 -8 -17 -17 0 -21 -63 -88 -82 -88 -8 0 -17
10 -22 22 -5 14 -10 17 -15 10 -4 -7 -4 -12 0 -12 4 0 -3 -11 -16 -25 -20 -22
-21 -25 -6 -31 9 -3 32 -4 51 -2 19 2 35 0 35 -4 0 -9 -21 -12 -67 -9 -26 2
-32 -1 -27 -12 3 -9 12 -18 20 -21 20 -8 9 -45 -19 -68 l-22 -17 25 -9 c52
-19 54 -22 13 -17 -43 5 -53 -1 -32 -22 17 -17 2 -63 -21 -63 -22 0 -39 -22
-22 -28 6 -2 22 -12 34 -23 l23 -19 -30 12 c-16 6 -36 16 -42 21 -15 11 -18
-10 -4 -32 15 -24 -15 -59 -44 -53 -32 6 -31 -3 2 -47 l27 -35 -35 27 c-44 33
-53 34 -45 3 4 -18 0 -28 -19 -40 -15 -10 -26 -12 -30 -6 -3 6 -15 10 -27 10
-15 0 -18 -3 -10 -13 6 -7 16 -26 22 -41 9 -25 9 -27 -4 -17 -9 7 -18 21 -21
32 -9 26 -23 24 -31 -6 -7 -29 -35 -40 -63 -26 -30 16 -32 14 -26 -31 5 -42 2
-40 -17 12 l-9 25 -17 -21 c-24 -30 -56 -36 -71 -13 -17 29 -34 23 -28 -9 3
-15 2 -34 -2 -41 -5 -8 -11 3 -15 29 -6 40 -8 42 -25 26 -22 -20 -71 -21 -71
-2 0 7 -6 19 -13 25 -11 9 -16 2 -26 -30 -15 -50 -26 -45 -13 5 11 38 5 44
-27 24 -21 -13 -49 -5 -56 17 -16 51 -15 50 -34 19 -25 -42 -47 -58 -57 -43
-4 8 -3 9 4 5 7 -4 20 10 32 35 l21 41 -31 -7 c-39 -9 -60 8 -60 48 l0 31 -30
-29 c-16 -16 -32 -26 -35 -23 -3 2 6 15 20 28 32 30 32 44 0 38 -37 -8 -60 23
-47 62 6 16 10 30 8 30 -2 0 -24 -11 -50 -25 -57 -30 -60 -24 -5 12 l42 27
-30 13 c-34 13 -49 41 -33 57 24 24 11 38 -32 32 l-43 -6 39 15 c52 20 54 23
22 34 -30 12 -36 50 -11 71 24 20 17 30 -21 30 -21 0 -33 4 -29 10 3 6 19 10
36 10 31 0 40 17 14 26 -19 8 -20 64 -1 64 7 0 19 6 25 14 10 11 4 17 -31 30
l-43 16 43 -6 c43 -6 56 8 31 33 -15 15 6 53 31 53 32 0 32 18 0 36 -39 23
-39 39 0 19 38 -20 43 -19 37 7 -9 33 10 58 43 58 37 0 37 6 3 42 -15 15 -22
28 -17 28 6 0 21 -11 34 -25 26 -27 41 -25 33 5 -9 32 15 51 53 44 37 -7 40
-1 19 36 -22 39 -17 49 6 13 24 -38 39 -42 39 -13 0 32 42 46 74 25 29 -19 29
-17 17 37 -5 21 -5 36 -1 33 5 -3 11 -19 15 -35 8 -34 24 -40 32 -10 7 27 47
26 76 -2 l22 -23 3 38 c2 21 -2 45 -9 53 -10 12 -9 13 5 8 11 -4 16 -18 16
-45 0 -41 9 -49 30 -24 20 25 59 19 70 -11 12 -31 26 -24 35 16 4 16 11 32 16
36 9 5 6 -17 -8 -71 -5 -18 -4 -18 19 -3 36 23 64 13 72 -25 l7 -32 30 35 30
35 -16 -39 c-18 -45 -15 -52 13 -35 18 11 24 10 41 -5 11 -10 17 -24 14 -31
-10 -27 8 -37 31 -17 40 36 51 35 17 -1 l-35 -37 29 0 c42 0 67 -26 53 -56
-15 -33 -6 -39 32 -19 18 9 34 14 37 11 3 -2 -9 -12 -26 -21 -33 -17 -33 -35
-1 -35 25 0 36 -40 20 -70 -6 -12 -10 -23 -8 -24 2 -1 22 1 45 6 31 7 40 13
36 23 -3 8 -14 15 -24 15 -25 0 -42 42 -29 72 5 13 9 18 9 11 1 -6 25 -17 55
-24 38 -8 56 -17 59 -30 5 -19 37 -27 37 -9 0 6 18 7 44 4 37 -5 47 -3 62 15
10 11 26 21 34 21 38 0 56 60 24 78 -16 9 -15 15 1 81 l17 72 -23 25 c-12 13
-32 24 -43 24 -32 0 -47 14 -55 51 -8 42 -35 48 -94 21 -23 -10 -54 -24 -69
-30 -17 -7 -30 -23 -38 -49 -6 -21 -14 -45 -18 -53 -3 -8 -6 -19 -7 -25 -1 -5
-7 -34 -14 -62 -9 -38 -18 -53 -30 -53 -22 0 -43 37 -36 61 9 28 -22 61 -55
57 -33 -3 -64 21 -68 52 -1 15 1 20 6 13 6 -9 35 -5 117 17 108 29 135 45 135
81 0 9 7 20 16 23 10 4 14 16 12 38 -2 27 -8 34 -29 36 -25 3 -27 8 -54 102
-11 40 -20 51 -53 60 -20 6 -46 17 -56 25 -41 31 -125 5 -152 -48 -9 -17 -25
-38 -35 -45 -21 -15 -24 -51 -8 -102 16 -52 38 -143 39 -157 0 -14 -38 -17
-55 -5 -6 4 -16 19 -22 35 -14 31 -52 37 -73 12 -15 -18 -54 -20 -68 -2 -9 10
8 32 73 97 l83 83 0 63 c0 72 -13 90 -57 81 -23 -5 -34 0 -61 28 -30 31 -35
33 -54 20 -30 -22 -52 -18 -74 10 -22 28 -34 30 -77 11z m108 -261 c-3 -9 -8
-14 -10 -11 -3 3 -2 9 2 15 9 16 15 13 8 -4z m35 -10 c-3 -3 -9 2 -12 12 -6
14 -5 15 5 6 7 -7 10 -15 7 -18z m-97 -18 c-10 -9 -11 -8 -5 6 3 10 9 15 12
12 3 -3 0 -11 -7 -18z m153 7 c3 -8 2 -12 -4 -9 -6 3 -10 10 -10 16 0 14 7 11
14 -7z m27 -7 c-10 -9 -11 -8 -5 6 3 10 9 15 12 12 3 -3 0 -11 -7 -18z m-526
-17 c-3 -5 -14 -10 -23 -9 -14 0 -13 2 3 9 27 11 27 11 20 0z m148 -5 c-3 -9
-8 -14 -10 -11 -3 3 -2 9 2 15 9 16 15 13 8 -4z m555 -16 c-3 -8 -7 -3 -11 10
-4 17 -3 21 5 13 5 -5 8 -16 6 -23z m-604 -39 c-6 -6 -10 -3 -10 10 0 13 4 16
10 10 7 -7 7 -13 0 -20z m-87 -56 c-3 -3 -12 -4 -19 -1 -8 3 -5 6 6 6 11 1 17
-2 13 -5z m130 -10 c-3 -3 -12 -4 -19 -1 -8 3 -5 6 6 6 11 1 17 -2 13 -5z
m866 -159 c-3 -9 -8 -14 -10 -11 -3 3 -2 9 2 15 9 16 15 13 8 -4z m35 -10 c-3
-3 -9 2 -12 12 -6 14 -5 15 5 6 7 -7 10 -15 7 -18z m-1313 -344 c-3 -6 -14
-10 -23 -10 -15 1 -15 2 1 6 9 2 17 9 17 15 0 6 3 9 6 5 3 -3 3 -10 -1 -16z
m1389 3 c3 -8 2 -12 -4 -9 -6 3 -10 10 -10 16 0 14 7 11 14 -7z m27 -7 c-10
-9 -11 -8 -5 6 3 10 9 15 12 12 3 -3 0 -11 -7 -18z m126 1 c-3 -8 -6 -5 -6 6
-1 11 2 17 5 13 3 -3 4 -12 1 -19z m-1546 -91 c-10 -9 -11 -8 -5 6 3 10 9 15
12 12 3 -3 0 -11 -7 -18z m1393 7 c3 -8 2 -12 -4 -9 -6 3 -10 10 -10 16 0 14
7 11 14 -7z m-1334 -228 c0 -2 -7 -7 -16 -10 -8 -3 -12 -2 -9 4 6 10 25 14 25
6z m-5 -44 c-3 -3 -11 0 -18 7 -9 10 -8 11 6 5 10 -3 15 -9 12 -12z m1300 8
c-3 -5 -14 -10 -23 -9 -14 0 -13 2 3 9 27 11 27 11 20 0z m-1239 -58 c1 -7 0
-8 -3 -2 -7 14 -33 13 -33 -2 0 -6 -3 -9 -6 -5 -3 3 -3 11 1 17 9 14 38 9 41
-8z m1182 11 c-10 -2 -18 -12 -18 -20 0 -9 -3 -14 -6 -10 -12 11 5 37 23 36
17 -1 17 -2 1 -6z m-1003 -223 c-3 -5 -14 -10 -23 -9 -14 0 -13 2 3 9 27 11
27 11 20 0z m832 -6 c-3 -3 -12 -4 -19 -1 -8 3 -5 6 6 6 11 1 17 -2 13 -5z
m-767 -8 c0 -2 -7 -7 -16 -10 -8 -3 -12 -2 -9 4 6 10 25 14 25 6z m695 -21 c0
-10 -6 -19 -13 -21 -7 -1 -8 0 -2 3 5 2 10 11 10 18 0 7 -5 16 -10 18 -6 3 -5
4 2 3 7 -2 13 -11 13 -21z m-700 -23 c-3 -3 -11 0 -18 7 -9 10 -8 11 6 5 10
-3 15 -9 12 -12z m622 -12 c3 -10 2 -11 -4 -4 -4 6 -15 14 -23 17 -11 5 -9 6
4 4 11 -1 21 -9 23 -17z m-279 -37 c-10 -2 -18 -9 -18 -15 0 -6 -3 -9 -6 -5
-10 10 6 27 24 26 15 -1 15 -2 0 -6z m-93 -23 c7 0 16 5 18 10 3 6 4 5 3 -2
-2 -7 -11 -13 -21 -13 -10 0 -19 6 -21 13 -1 7 0 8 3 2 2 -5 11 -10 18 -10z
m185 -3 c11 -5 9 -6 -4 -4 -11 1 -21 9 -23 17 -3 10 -2 11 4 4 4 -6 15 -14 23
-17z"/>
<path d="M594 2175 c-9 -23 3 -45 26 -45 25 0 37 25 20 45 -16 19 -39 19 -46
0z"/>
<path d="M1730 2176 c-18 -22 -5 -48 22 -44 17 2 23 10 23 28 0 29 -26 38 -45
16z"/>
<path d="M482 2153 c2 -10 10 -18 18 -18 22 0 18 29 -3 33 -14 3 -18 -1 -15
-15z"/>
<path d="M1854 2159 c-3 -6 -2 -15 4 -21 13 -13 32 -2 32 18 0 16 -26 19 -36
3z"/>
<path d="M514 2126 c-20 -15 -13 -43 12 -53 20 -7 45 22 38 42 -8 20 -30 25
-50 11z"/>
<path d="M1816 2124 c-12 -12 -13 -20 -6 -35 12 -22 30 -25 48 -7 18 18 15 36
-7 48 -15 7 -23 6 -35 -6z"/>
<path d="M424 2119 c-10 -17 13 -36 27 -22 12 12 4 33 -11 33 -5 0 -12 -5 -16
-11z"/>
<path d="M1914 2119 c-10 -17 13 -36 27 -22 12 12 4 33 -11 33 -5 0 -12 -5
-16 -11z"/>
<path d="M370 2060 c0 -11 7 -20 15 -20 8 0 15 9 15 20 0 11 -7 20 -15 20 -8
0 -15 -9 -15 -20z"/>
<path d="M1970 2061 c0 -12 6 -21 16 -21 9 0 14 7 12 17 -5 25 -28 28 -28 4z"/>
<path d="M427 2057 c-3 -8 1 -23 8 -34 11 -14 18 -16 32 -7 28 17 23 48 -8 52
-16 2 -29 -3 -32 -11z"/>
<path d="M1884 2055 c-7 -18 12 -45 32 -45 16 0 33 30 27 48 -7 17 -52 15 -59
-3z"/>
<path d="M321 2016 c-12 -14 -5 -26 16 -26 15 0 18 26 4 34 -5 3 -14 0 -20 -8z"/>
<path d="M2027 2023 c-4 -3 -7 -12 -7 -20 0 -15 26 -18 34 -4 7 11 -18 33 -27
24z"/>
<path d="M364 1996 c-20 -15 -14 -43 12 -53 20 -8 47 19 39 39 -9 23 -30 29
-51 14z"/>
<path d="M1965 1994 c-18 -19 -16 -33 7 -48 12 -7 21 -6 32 3 22 18 20 38 -3
51 -15 7 -24 6 -36 -6z"/>
<path d="M272 1954 c4 -21 22 -23 26 -1 2 10 -3 17 -13 17 -10 0 -15 -6 -13
-16z"/>
<path d="M2072 1954 c4 -21 22 -23 26 -1 2 10 -3 17 -13 17 -10 0 -15 -6 -13
-16z"/>
<path d="M294 1916 c-10 -26 4 -48 28 -44 17 2 23 10 23 28 0 18 -6 26 -23 28
-13 2 -25 -3 -28 -12z"/>
<path d="M2024 1916 c-10 -26 4 -48 28 -44 17 2 23 10 23 28 0 18 -6 26 -23
28 -13 2 -25 -3 -28 -12z"/>
<path d="M220 1895 c0 -8 9 -15 20 -15 11 0 20 7 20 15 0 8 -9 15 -20 15 -11
0 -20 -7 -20 -15z"/>
<path d="M990 1895 c0 -10 7 -15 18 -13 21 4 19 22 -2 26 -10 2 -16 -3 -16
-13z"/>
<path d="M1347 1904 c-9 -10 2 -24 19 -24 8 0 14 7 14 15 0 15 -21 21 -33 9z"/>
<path d="M2110 1896 c0 -15 24 -28 34 -19 13 14 5 33 -14 33 -11 0 -20 -6 -20
-14z"/>
<path d="M180 1836 c0 -8 4 -17 8 -20 13 -8 35 11 28 23 -10 16 -36 14 -36 -3z"/>
<path d="M234 1836 c-10 -26 4 -48 28 -44 17 2 23 10 23 28 0 18 -6 26 -23 28
-13 2 -25 -3 -28 -12z"/>
<path d="M2084 1836 c-10 -26 4 -48 28 -44 17 2 23 10 23 28 0 18 -6 26 -23
28 -13 2 -25 -3 -28 -12z"/>
<path d="M2154 1839 c-7 -12 15 -31 28 -23 4 3 8 12 8 20 0 17 -26 19 -36 3z"/>
<path d="M144 1779 c-10 -17 13 -36 27 -22 12 12 4 33 -11 33 -5 0 -12 -5 -16
-11z"/>
<path d="M2194 1779 c-10 -17 13 -36 27 -22 12 12 4 33 -11 33 -5 0 -12 -5
-16 -11z"/>
<path d="M187 1754 c-10 -11 -9 -42 3 -49 20 -12 51 6 48 28 -3 22 -36 35 -51
21z"/>
<path d="M2137 1754 c-14 -15 -6 -43 14 -49 25 -8 42 6 37 31 -3 19 -38 31
-51 18z"/>
<path d="M680 1724 c0 -9 7 -14 17 -12 25 5 28 28 4 28 -12 0 -21 -6 -21 -16z"/>
<path d="M1657 1734 c-9 -10 2 -24 19 -24 8 0 14 7 14 15 0 15 -21 21 -33 9z"/>
<path d="M110 1705 c0 -10 7 -15 18 -13 21 4 19 22 -2 26 -10 2 -16 -3 -16
-13z"/>
<path d="M2227 1714 c-9 -10 2 -24 19 -24 8 0 14 7 14 15 0 15 -21 21 -33 9z"/>
<path d="M1122 1683 c-52 -5 -66 -28 -33 -55 13 -10 19 -18 14 -18 -13 0 -43
34 -43 48 0 16 -3 15 -61 -9 -49 -21 -49 -22 -34 -45 8 -13 12 -24 8 -24 -5 0
-14 9 -21 20 -12 20 -13 20 -57 -11 -41 -29 -44 -34 -30 -49 8 -9 15 -21 15
-26 0 -5 10 -14 22 -19 11 -6 28 -21 37 -35 15 -25 15 -25 -15 2 -20 19 -37
26 -53 23 -19 -4 -21 -2 -10 11 10 12 9 18 -4 32 -18 18 -20 16 -64 -47 -16
-22 -16 -24 0 -36 24 -17 21 -28 -4 -15 -25 14 -23 16 -48 -42 l-20 -47 21 -7
c13 -4 24 -1 29 7 7 11 9 11 9 1 0 -7 15 -19 33 -27 17 -8 26 -14 19 -15 -7 0
-23 5 -35 12 -30 16 -76 16 -82 0 -3 -8 -5 -31 -5 -53 0 -32 4 -39 19 -39 11
0 21 8 24 18 3 13 4 12 3 -3 -1 -13 -9 -21 -23 -23 -20 -3 -23 -9 -23 -47 0
-61 6 -73 38 -68 l27 4 -27 -13 -27 -13 21 -47 c11 -27 24 -48 29 -48 4 0 17
10 29 22 11 12 20 19 20 15 0 -4 18 2 40 13 49 25 52 19 5 -10 -19 -12 -32
-27 -29 -32 4 -6 3 -9 -2 -6 -5 4 -22 1 -37 -5 l-28 -12 32 -43 c17 -24 36
-40 43 -37 6 3 19 8 29 11 9 4 17 12 17 18 0 7 14 25 32 42 l31 29 -27 -36
c-15 -20 -25 -43 -24 -50 2 -8 -4 -13 -13 -11 -9 1 -22 -4 -28 -12 -9 -11 -3
-20 31 -45 37 -28 44 -30 54 -16 16 22 27 18 14 -5 -10 -18 -6 -23 32 -40 58
-27 71 -26 66 5 -3 13 -1 22 3 19 5 -3 9 -16 9 -28 0 -19 7 -25 38 -30 60 -10
72 -8 72 13 0 12 -8 21 -22 24 -13 2 0 3 27 3 28 0 40 -1 28 -3 -15 -3 -23
-12 -23 -24 0 -21 12 -23 73 -12 35 5 38 8 33 32 -6 24 -5 24 5 6 7 -11 13
-22 15 -23 1 -2 23 6 49 17 40 18 46 24 40 43 -6 22 -6 22 9 4 15 -19 17 -19
53 11 40 32 49 58 21 58 -9 0 -20 4 -25 9 -4 5 -3 6 3 3 12 -7 38 16 29 25 -3
2 2 5 10 5 11 0 12 -3 3 -14 -8 -10 -8 -17 0 -25 13 -13 32 0 64 44 20 28 20
30 2 44 -18 13 -17 14 6 9 22 -5 27 -1 39 32 8 21 16 43 18 50 3 6 -5 14 -16
18 -12 3 -21 11 -21 16 0 5 9 4 20 -3 25 -16 29 -10 37 51 5 47 4 51 -15 51
-15 0 -22 -8 -24 -27 -3 -16 -4 -1 -4 32 0 33 1 48 4 33 5 -37 42 -40 42 -4 0
81 -34 115 -58 59 -11 -27 -11 -27 -5 7 5 35 5 35 -15 16 -12 -10 -27 -16 -34
-13 -9 4 -7 6 4 6 9 1 24 11 32 23 9 12 16 17 16 10 0 -6 9 -12 20 -12 25 0
25 13 0 68 -18 40 -21 42 -42 31 -23 -12 -23 -12 -4 9 18 21 18 22 -14 62 -29
37 -34 40 -48 26 -12 -12 -13 -18 -3 -30 11 -13 9 -15 -10 -11 -17 3 -35 -6
-64 -33 l-40 -37 37 40 c37 39 41 56 23 85 -6 10 -2 9 12 -3 19 -16 21 -16 34
-1 12 15 9 20 -21 45 -38 32 -58 36 -66 14 -4 -8 -10 -15 -15 -15 -5 0 -2 11
6 24 16 24 16 24 -37 44 -48 18 -53 18 -57 4 -3 -17 -30 -41 -45 -42 -4 0 2 8
15 18 32 26 20 52 -25 52 -19 0 -41 3 -49 6 -11 4 -17 -2 -20 -23 l-4 -28 -2
28 c0 15 -4 26 -8 25 -5 -1 -27 -3 -51 -5z m41 -50 c-7 -2 -21 -2 -30 0 -10 3
-4 5 12 5 17 0 24 -2 18 -5z m80 0 c-7 -2 -21 -2 -30 0 -10 3 -4 5 12 5 17 0
24 -2 18 -5z m-170 -25 c9 -7 19 -29 22 -48 l5 -35 -11 36 c-6 21 -20 41 -32
47 -12 6 -17 11 -11 11 5 1 18 -5 27 -11z m114 -65 c-2 -16 -4 -3 -4 27 0 30
2 43 4 28 2 -16 2 -40 0 -55z m127 65 c-11 -5 -26 -26 -32 -46 l-11 -37 6 35
c5 34 26 61 47 59 6 0 2 -5 -10 -11z m-319 -38 c-3 -5 1 -23 10 -40 21 -41 12
-38 -13 4 -15 25 -17 36 -9 40 18 7 19 7 12 -4z m395 -17 c0 -5 -10 -19 -21
-33 l-20 -25 16 33 c15 30 25 41 25 25z m-479 -16 c-6 -8 -7 -18 -3 -22 4 -5
1 -5 -6 -1 -10 6 -10 11 -1 22 6 8 14 14 16 14 3 0 0 -6 -6 -13z m390 -104
c158 -81 186 -296 53 -413 -52 -46 -99 -63 -169 -63 -265 0 -352 356 -116 476
42 21 69 27 116 27 47 0 74 -6 116 -27z m-416 -48 c19 -15 18 -15 -12 -1 -17
9 -35 21 -39 27 -8 13 21 -1 51 -26z m655 27 c0 -5 -12 -14 -27 -21 l-28 -12
25 21 c29 22 30 23 30 12z m-734 -34 c5 -7 3 -8 -6 -3 -10 6 -12 4 -6 -11 5
-14 4 -16 -5 -7 -6 6 -8 16 -5 22 9 14 13 14 22 -1z m775 -20 c-10 -11 -11 -9
-5 6 6 15 4 17 -6 11 -9 -6 -11 -4 -5 4 5 9 10 10 18 2 8 -8 7 -14 -2 -23z
m-801 -76 c0 -15 -2 -15 -10 -2 -13 20 -13 33 0 25 6 -3 10 -14 10 -23z m97
12 c-3 -3 -12 -4 -19 -1 -8 3 -5 6 6 6 11 1 17 -2 13 -5z m650 0 c-3 -3 -12
-4 -19 -1 -8 3 -5 6 6 6 11 1 17 -2 13 -5z m-724 -81 c-7 -2 -19 -2 -25 0 -7
3 -2 5 12 5 14 0 19 -2 13 -5z m780 -10 c-13 -2 -35 -2 -50 0 -16 2 -5 4 22 4
28 0 40 -2 28 -4z m-826 -40 c-3 -10 -5 -4 -5 12 0 17 2 24 5 18 2 -7 2 -21 0
-30z m70 -53 c-16 -5 -35 -17 -42 -27 -13 -17 -14 -17 -8 4 5 22 21 30 58 31
13 0 10 -3 -8 -8z m736 1 c13 -5 27 -18 31 -28 6 -16 5 -17 -7 -1 -7 9 -29 21
-48 26 -18 6 -26 11 -17 11 9 1 28 -3 41 -8z m-26 -107 c-5 -5 -77 35 -77 42
0 3 18 -5 41 -16 23 -12 39 -24 36 -26z m-92 -54 c21 -22 37 -40 34 -40 -3 0
-23 18 -44 40 -21 22 -37 40 -34 40 3 0 23 -18 44 -40z m-595 14 c0 -8 -19
-13 -24 -6 -3 5 1 9 9 9 8 0 15 -2 15 -3z m700 0 c0 -8 -19 -13 -24 -6 -3 5 1
9 9 9 8 0 15 -2 15 -3z m-670 -40 c0 -8 -19 -13 -24 -6 -3 5 1 9 9 9 8 0 15
-2 15 -3z m489 -30 c12 -20 20 -39 17 -41 -2 -3 -14 13 -26 36 -25 51 -20 54
9 5z m-366 -6 c-10 -17 -25 -34 -33 -36 -11 -4 -10 -1 3 12 9 10 22 26 27 37
6 10 13 19 16 19 3 0 -2 -14 -13 -32z m285 -68 c0 -9 -3 -7 -8 5 -5 11 -8 29
-8 40 0 16 2 15 8 -5 4 -14 8 -32 8 -40z m-101 -12 c-2 -13 -4 -3 -4 22 0 25
2 35 4 23 2 -13 2 -33 0 -45z m-107 15 c-11 -17 -11 -17 -6 0 3 10 6 24 7 30
0 9 2 9 5 0 3 -7 0 -20 -6 -30z m-30 -7 c0 -2 -7 -7 -16 -10 -8 -3 -12 -2 -9
4 6 10 25 14 25 6z m295 -6 c3 -6 -1 -7 -9 -4 -18 7 -21 14 -7 14 6 0 13 -4
16 -10z m-235 -20 c-8 -5 -19 -10 -25 -10 -5 0 -3 5 5 10 8 5 20 10 25 10 6 0
3 -5 -5 -10z m165 0 c3 -6 -1 -7 -9 -4 -18 7 -21 14 -7 14 6 0 13 -4 16 -10z"/>
<path d="M1123 1433 c-3 -7 -9 -10 -15 -7 -14 9 -80 -26 -75 -39 6 -18 37 -21
37 -3 0 10 6 13 16 9 9 -3 20 0 24 7 5 8 32 12 75 12 43 0 70 -4 75 -12 4 -7
15 -10 24 -7 10 4 16 1 16 -9 0 -18 31 -15 37 3 5 13 -61 48 -76 39 -5 -3 -11
0 -13 6 -6 18 -118 19 -125 1z"/>
<path d="M1103 1381 c-50 -23 -99 -86 -108 -140 -9 -53 10 -114 47 -157 43
-48 77 -64 143 -64 31 0 69 7 84 14 42 22 89 81 101 127 32 117 -62 239 -185
239 -22 0 -59 -9 -82 -19z m99 -27 c11 -23 10 -29 -11 -45 -21 -17 -26 -18
-45 -6 -41 27 -27 77 20 77 17 0 28 -9 36 -26z m148 -99 c16 -19 9 -45 -16
-62 -19 -12 -24 -11 -45 6 -21 16 -22 22 -11 45 13 29 52 36 72 11z m-266 -41
c21 -21 20 -37 -3 -58 -25 -23 -59 -13 -67 20 -12 46 37 72 70 38z m89 1 c-3
-9 -8 -14 -10 -11 -3 3 -2 9 2 15 9 16 15 13 8 -4z m35 -10 c-3 -3 -9 2 -12
12 -6 14 -5 15 5 6 7 -7 10 -15 7 -18z m32 -100 c17 -20 4 -62 -21 -70 -15 -5
-28 -1 -42 14 -18 17 -19 24 -9 46 13 29 52 34 72 10z"/>
<path d="M1170 1320 c0 -5 5 -10 10 -10 6 0 10 5 10 10 0 6 -4 10 -10 10 -5 0
-10 -4 -10 -10z"/>
<path d="M1290 1209 c0 -5 5 -7 10 -4 6 3 10 8 10 11 0 2 -4 4 -10 4 -5 0 -10
-5 -10 -11z"/>
<path d="M1060 1200 c0 -5 5 -10 10 -10 6 0 10 5 10 10 0 6 -4 10 -10 10 -5 0
-10 -4 -10 -10z"/>
<path d="M1003 1363 c-4 -10 -13 -23 -21 -29 -17 -12 -8 -34 14 -34 8 0 14 9
14 20 0 12 7 20 16 20 9 0 14 7 12 17 -4 24 -27 28 -35 6z"/>
<path d="M1337 1373 c-13 -12 -7 -33 8 -33 8 0 15 -9 15 -20 0 -11 6 -20 14
-20 22 0 31 22 14 34 -8 6 -17 19 -21 29 -7 18 -19 22 -30 10z"/>
<path d="M953 1285 c-3 -9 -3 -19 1 -22 3 -3 1 -12 -5 -20 -9 -9 -8 -17 0 -27
9 -11 9 -15 0 -18 -8 -3 -10 -11 -4 -24 4 -10 7 -25 6 -32 -1 -7 5 -15 12 -18
9 -3 13 -13 10 -25 -4 -13 0 -19 11 -19 9 0 16 -8 16 -20 0 -11 6 -20 14 -20
8 0 16 -7 20 -15 3 -8 12 -15 20 -15 7 0 17 -7 20 -16 4 -10 14 -14 26 -11 11
3 20 1 20 -5 0 -6 11 -8 24 -4 14 3 28 1 31 -4 5 -8 11 -8 19 -1 7 6 22 8 34
4 12 -3 22 -1 22 5 0 6 9 8 20 5 12 -3 22 1 26 11 3 9 13 16 20 16 8 0 17 7
20 15 4 8 12 15 20 15 8 0 14 9 14 20 0 12 7 20 16 20 11 0 15 6 11 19 -3 12
1 22 10 25 7 3 13 11 12 18 -1 7 2 22 6 32 6 13 4 21 -4 24 -9 3 -9 7 -1 18 7
7 8 19 4 26 -5 7 -8 22 -9 32 0 11 -6 21 -12 23 -15 5 -30 -26 -17 -36 11 -7
12 -101 2 -101 -5 0 -8 -7 -8 -15 0 -40 -75 -120 -122 -130 -18 -4 -38 -12
-45 -17 -7 -6 -14 -5 -18 2 -5 8 -10 8 -20 0 -8 -7 -16 -7 -19 -2 -3 6 -22 13
-41 16 -49 9 -125 89 -125 131 0 8 -3 15 -8 15 -10 0 -9 94 2 101 11 9 0 39
-14 39 -6 0 -13 -7 -17 -15z"/>
<path d="M137 1658 c-6 -18 11 -48 27 -48 20 0 37 25 30 44 -7 19 -50 22 -57
4z"/>
<path d="M2176 1654 c-7 -19 10 -44 30 -44 16 0 33 30 27 48 -7 18 -50 15 -57
-4z"/>
<path d="M84 1649 c-10 -17 13 -36 27 -22 12 12 4 33 -11 33 -5 0 -12 -5 -16
-11z"/>
<path d="M2255 1651 c-8 -15 3 -31 21 -31 9 0 14 7 12 17 -4 20 -24 28 -33 14z"/>
<path d="M60 1571 c0 -12 6 -21 16 -21 9 0 14 7 12 17 -5 25 -28 28 -28 4z"/>
<path d="M2287 1583 c-4 -3 -7 -12 -7 -20 0 -15 26 -18 34 -4 7 11 -18 33 -27
24z"/>
<path d="M104 1566 c-10 -26 4 -48 28 -44 17 2 23 10 23 28 0 18 -6 26 -23 28
-13 2 -25 -3 -28 -12z"/>
<path d="M2214 1566 c-10 -26 4 -48 28 -44 17 2 23 10 23 28 0 18 -6 26 -23
28 -13 2 -25 -3 -28 -12z"/>
<path d="M40 1501 c0 -12 6 -21 16 -21 9 0 14 7 12 17 -5 25 -28 28 -28 4z"/>
<path d="M1470 1516 c0 -2 8 -10 18 -17 15 -13 16 -12 3 4 -13 16 -21 21 -21
13z"/>
<path d="M2303 1505 c-7 -20 2 -29 21 -22 9 4 13 13 10 22 -8 19 -23 19 -31 0z"/>
<path d="M84 1476 c-20 -15 -14 -43 12 -53 20 -8 47 19 39 39 -9 23 -30 29
-51 14z"/>
<path d="M2245 1474 c-18 -19 -16 -33 7 -48 12 -7 21 -6 32 3 22 18 20 38 -3
51 -15 7 -24 6 -36 -6z"/>
<path d="M27 1443 c-4 -3 -7 -12 -7 -20 0 -15 26 -18 34 -4 7 11 -18 33 -27
24z"/>
<path d="M2321 1436 c-12 -14 -5 -26 16 -26 15 0 18 26 4 34 -5 3 -14 0 -20
-8z"/>
<path d="M67 1384 c-12 -13 -8 -52 7 -57 8 -3 22 1 33 8 14 11 16 18 7 32 -12
19 -36 28 -47 17z"/>
<path d="M2262 1378 c-17 -17 -15 -36 6 -47 25 -13 44 1 40 30 -3 27 -27 36
-46 17z"/>
<path d="M12 1354 c4 -21 22 -23 26 -1 2 10 -3 17 -13 17 -10 0 -15 -6 -13
-16z"/>
<path d="M2332 1354 c4 -21 22 -23 26 -1 2 10 -3 17 -13 17 -10 0 -15 -6 -13
-16z"/>
<path d="M1733 1348 c-39 -13 -41 -21 -9 -36 19 -9 27 -7 39 6 37 44 31 49
-30 30z"/>
<path d="M4 1289 c-10 -17 13 -36 27 -22 12 12 4 33 -11 33 -5 0 -12 -5 -16
-11z"/>
<path d="M2334 1289 c-10 -17 13 -36 27 -22 12 12 4 33 -11 33 -5 0 -12 -5
-16 -11z"/>
<path d="M54 1275 c-9 -23 3 -45 26 -45 25 0 37 25 20 45 -16 19 -39 19 -46 0z"/>
<path d="M2270 1276 c-18 -22 -5 -48 22 -44 17 2 23 10 23 28 0 29 -26 38 -45
16z"/>
<path d="M7 1223 c-4 -3 -7 -12 -7 -20 0 -15 26 -18 34 -4 7 11 -18 33 -27 24z"/>
<path d="M2341 1216 c-12 -14 -5 -26 16 -26 15 0 18 26 4 34 -5 3 -14 0 -20
-8z"/>
<path d="M54 1175 c-9 -23 3 -45 26 -45 25 0 37 25 20 45 -16 19 -39 19 -46 0z"/>
<path d="M2270 1176 c-18 -22 -5 -48 22 -44 17 2 23 10 23 28 0 29 -26 38 -45
16z"/>
<path d="M0 1136 c0 -10 9 -16 21 -16 24 0 21 23 -4 28 -10 2 -17 -3 -17 -12z"/>
<path d="M2337 1143 c-13 -12 -7 -23 13 -23 11 0 20 7 20 15 0 15 -21 21 -33
8z"/>
<path d="M64 1075 c-9 -23 3 -45 26 -45 25 0 37 25 20 45 -16 19 -39 19 -46 0z"/>
<path d="M2260 1076 c-18 -22 -5 -48 22 -44 17 2 23 10 23 28 0 29 -26 38 -45
16z"/>
<path d="M12 1063 c5 -25 28 -28 28 -4 0 12 -6 21 -16 21 -9 0 -14 -7 -12 -17z"/>
<path d="M2330 1060 c0 -11 7 -20 15 -20 8 0 15 9 15 20 0 11 -7 20 -15 20 -8
0 -15 -9 -15 -20z"/>
<path d="M27 1004 c-14 -14 -7 -35 11 -32 9 2 17 10 17 17 0 16 -18 25 -28 15z"/>
<path d="M2315 1001 c-8 -15 3 -31 21 -31 9 0 14 7 12 17 -4 20 -24 28 -33 14z"/>
<path d="M76 974 c-7 -19 10 -44 29 -44 7 0 18 7 25 15 10 12 10 18 0 30 -16
20 -46 19 -54 -1z"/>
<path d="M2240 975 c-10 -12 -10 -18 0 -30 7 -8 18 -15 25 -15 19 0 36 25 29
44 -8 20 -38 21 -54 1z"/>
<path d="M41 926 c-12 -14 -5 -26 16 -26 15 0 18 26 4 34 -5 3 -14 0 -20 -8z"/>
<path d="M2307 933 c-4 -3 -7 -12 -7 -20 0 -15 26 -18 34 -4 7 11 -18 33 -27
24z"/>
<path d="M112 888 c-25 -25 0 -64 32 -52 21 8 21 50 0 58 -20 8 -18 8 -32 -6z"/>
<path d="M2223 893 c-19 -7 -16 -50 4 -57 24 -10 51 20 37 41 -12 19 -23 24
-41 16z"/>
<path d="M61 856 c-12 -14 -5 -26 16 -26 15 0 18 26 4 34 -5 3 -14 0 -20 -8z"/>
<path d="M2280 845 c0 -10 7 -15 18 -13 21 4 19 22 -2 26 -10 2 -16 -3 -16
-13z"/>
<path d="M87 794 c-14 -14 -7 -35 11 -32 9 2 17 10 17 17 0 16 -18 25 -28 15z"/>
<path d="M140 775 c0 -31 26 -43 46 -23 20 20 7 48 -22 48 -19 0 -24 -5 -24
-25z"/>
<path d="M2176 783 c-8 -21 17 -48 38 -40 9 4 16 18 16 32 0 20 -5 25 -24 25
-13 0 -27 -8 -30 -17z"/>
<path d="M2255 791 c-8 -15 3 -31 21 -31 9 0 14 7 12 17 -4 20 -24 28 -33 14z"/>
<path d="M114 719 c-10 -17 13 -36 27 -22 12 12 4 33 -11 33 -5 0 -12 -5 -16
-11z"/>
<path d="M2224 719 c-10 -17 13 -36 27 -22 12 12 4 33 -11 33 -5 0 -12 -5 -16
-11z"/>
<path d="M184 696 c-10 -26 4 -48 28 -44 17 2 23 10 23 28 0 18 -6 26 -23 28
-13 2 -25 -3 -28 -12z"/>
<path d="M2134 696 c-10 -26 4 -48 28 -44 17 2 23 10 23 28 0 18 -6 26 -23 28
-13 2 -25 -3 -28 -12z"/>
<path d="M140 645 c0 -8 9 -15 20 -15 11 0 20 7 20 15 0 8 -9 15 -20 15 -11 0
-20 -7 -20 -15z"/>
<path d="M2190 646 c0 -10 9 -16 21 -16 24 0 21 23 -4 28 -10 2 -17 -3 -17
-12z"/>
<path d="M242 621 c-23 -14 -10 -46 18 -46 16 0 26 6 28 19 3 16 -12 36 -28
36 -3 0 -11 -4 -18 -9z"/>
<path d="M2092 621 c-23 -14 -10 -46 18 -46 16 0 26 6 28 19 3 16 -12 36 -28
36 -3 0 -11 -4 -18 -9z"/>
<path d="M182 583 c4 -21 33 -25 33 -3 0 8 -8 16 -18 18 -14 3 -18 -1 -15 -15z"/>
<path d="M2154 589 c-10 -17 13 -36 27 -22 12 12 4 33 -11 33 -5 0 -12 -5 -16
-11z"/>
<path d="M303 543 c-17 -6 -16 -38 0 -52 21 -17 56 12 41 35 -12 20 -23 25
-41 17z"/>
<path d="M2032 538 c-17 -17 -15 -36 6 -47 13 -7 23 -6 30 1 17 17 15 45 -4
52 -20 8 -18 8 -32 -6z"/>
<path d="M224 529 c-10 -17 13 -36 27 -22 12 12 4 33 -11 33 -5 0 -12 -5 -16
-11z"/>
<path d="M995 530 c-7 -12 2 -30 16 -30 5 0 9 9 9 20 0 21 -15 27 -25 10z"/>
<path d="M1344 529 c-10 -17 13 -36 27 -22 12 12 4 33 -11 33 -5 0 -12 -5 -16
-11z"/>
<path d="M2114 529 c-10 -17 13 -36 27 -22 12 12 4 33 -11 33 -5 0 -12 -5 -16
-11z"/>
<path d="M272 464 c4 -21 22 -23 26 -1 2 10 -3 17 -13 17 -10 0 -15 -6 -13
-16z"/>
<path d="M2072 464 c4 -21 22 -23 26 -1 2 10 -3 17 -13 17 -10 0 -15 -6 -13
-16z"/>
<path d="M356 454 c-7 -19 10 -44 29 -44 19 0 36 25 29 44 -3 9 -16 16 -29 16
-13 0 -26 -7 -29 -16z"/>
<path d="M1956 454 c-7 -19 10 -44 29 -44 19 0 36 25 29 44 -3 9 -16 16 -29
16 -13 0 -26 -7 -29 -16z"/>
<path d="M321 416 c-12 -14 -5 -26 16 -26 15 0 18 26 4 34 -5 3 -14 0 -20 -8z"/>
<path d="M2027 423 c-4 -3 -7 -12 -7 -20 0 -15 26 -18 34 -4 7 11 -18 33 -27
24z"/>
<path d="M436 394 c-12 -12 -13 -20 -6 -35 12 -22 30 -25 48 -7 18 18 15 36
-7 48 -15 7 -23 6 -35 -6z"/>
<path d="M1894 396 c-20 -15 -13 -43 12 -53 20 -7 45 22 38 42 -8 20 -30 25
-50 11z"/>
<path d="M370 355 c0 -8 7 -15 15 -15 8 0 15 7 15 15 0 8 -7 15 -15 15 -8 0
-15 -7 -15 -15z"/>
<path d="M1970 355 c0 -8 7 -15 15 -15 8 0 15 7 15 15 0 8 -7 15 -15 15 -8 0
-15 -7 -15 -15z"/>
<path d="M506 324 c-7 -19 10 -44 29 -44 7 0 18 7 25 15 10 12 10 18 0 30 -16
20 -46 19 -54 -1z"/>
<path d="M1810 325 c-10 -12 -10 -18 0 -30 7 -8 18 -15 25 -15 19 0 36 25 29
44 -8 20 -38 21 -54 1z"/>
<path d="M424 319 c-10 -17 13 -36 27 -22 12 12 4 33 -11 33 -5 0 -12 -5 -16
-11z"/>
<path d="M1917 324 c-14 -14 -7 -35 11 -32 9 2 17 10 17 17 0 16 -18 25 -28
15z"/>
<path d="M590 271 c-14 -28 13 -55 41 -41 22 12 25 30 7 48 -18 18 -36 15 -48
-7z"/>
<path d="M1732 278 c-18 -18 -15 -36 7 -48 28 -14 55 13 41 41 -12 22 -30 25
-48 7z"/>
<path d="M482 263 c4 -21 33 -25 33 -3 0 8 -8 16 -18 18 -14 3 -18 -1 -15 -15z"/>
<path d="M1854 269 c-8 -14 11 -33 25 -25 16 10 13 36 -3 36 -8 0 -18 -5 -22
-11z"/>
<path d="M544 229 c-10 -17 13 -36 27 -22 12 12 4 33 -11 33 -5 0 -12 -5 -16
-11z"/>
<path d="M681 226 c-15 -18 -4 -46 18 -46 27 0 42 20 30 42 -12 21 -32 23 -48
4z"/>
<path d="M1641 222 c-12 -22 3 -42 30 -42 22 0 33 28 18 46 -16 19 -36 17 -48
-4z"/>
<path d="M1794 229 c-10 -17 13 -36 27 -22 12 12 4 33 -11 33 -5 0 -12 -5 -16
-11z"/>
<path d="M606 191 c-7 -11 18 -33 27 -24 4 3 7 12 7 20 0 15 -26 18 -34 4z"/>
<path d="M770 185 c-10 -12 -10 -18 0 -30 26 -32 68 -8 54 30 -4 8 -14 15 -24
15 -10 0 -23 -7 -30 -15z"/>
<path d="M1546 185 c-8 -22 4 -45 24 -45 28 0 45 27 30 45 -7 8 -20 15 -30 15
-10 0 -20 -7 -24 -15z"/>
<path d="M1730 186 c0 -8 4 -17 9 -20 11 -7 33 18 24 27 -12 12 -33 7 -33 -7z"/>
<path d="M674 159 c-10 -17 13 -36 27 -22 12 12 4 33 -11 33 -5 0 -12 -5 -16
-11z"/>
<path d="M864 156 c-10 -26 4 -48 28 -44 17 2 23 10 23 28 0 18 -6 26 -23 28
-13 2 -25 -3 -28 -12z"/>
<path d="M1454 156 c-10 -26 4 -48 28 -44 17 2 23 10 23 28 0 18 -6 26 -23 28
-13 2 -25 -3 -28 -12z"/>
<path d="M1664 159 c-10 -17 13 -36 27 -22 12 12 4 33 -11 33 -5 0 -12 -5 -16
-11z"/>
<path d="M967 143 c-4 -3 -7 -17 -7 -30 0 -18 5 -23 25 -23 14 0 28 7 31 15
11 27 -30 58 -49 38z"/>
<path d="M1360 136 c-18 -22 -5 -46 25 -46 23 0 26 4 23 27 -3 32 -29 41 -48
19z"/>
<path d="M740 119 c0 -24 23 -21 28 4 2 10 -3 17 -12 17 -10 0 -16 -9 -16 -21z"/>
<path d="M1065 124 c-18 -19 -16 -33 7 -48 12 -7 21 -6 32 3 22 18 20 38 -3
51 -15 7 -24 6 -36 -6z"/>
<path d="M1264 126 c-20 -15 -14 -43 12 -53 20 -8 47 19 39 39 -9 23 -30 29
-51 14z"/>
<path d="M1602 124 c4 -21 22 -23 26 -1 2 10 -3 17 -13 17 -10 0 -15 -6 -13
-16z"/>
<path d="M1161 116 c-16 -20 -3 -46 24 -46 27 0 40 26 24 46 -15 18 -33 18
-48 0z"/>
<path d="M811 106 c-12 -14 -5 -26 16 -26 15 0 18 26 4 34 -5 3 -14 0 -20 -8z"/>
<path d="M1530 95 c0 -8 7 -15 15 -15 8 0 15 7 15 15 0 8 -7 15 -15 15 -8 0
-15 -7 -15 -15z"/>
<path d="M881 86 c-12 -14 -5 -26 16 -26 15 0 18 26 4 34 -5 3 -14 0 -20 -8z"/>
<path d="M1466 93 c-12 -12 -6 -33 9 -33 8 0 15 6 15 14 0 17 -14 28 -24 19z"/>
<path d="M950 60 c0 -11 7 -20 15 -20 8 0 15 9 15 20 0 11 -7 20 -15 20 -8 0
-15 -9 -15 -20z"/>
<path d="M1387 66 c-7 -16 1 -26 20 -26 7 0 13 9 13 20 0 23 -25 27 -33 6z"/>
<path d="M1027 64 c-14 -14 -7 -35 11 -32 9 2 17 10 17 17 0 16 -18 25 -28 15z"/>
<path d="M1315 61 c-8 -15 3 -31 21 -31 9 0 14 7 12 17 -4 20 -24 28 -33 14z"/>
<path d="M1094 49 c-10 -17 13 -36 27 -22 12 12 4 33 -11 33 -5 0 -12 -5 -16
-11z"/>
<path d="M1170 40 c0 -11 7 -20 15 -20 8 0 15 9 15 20 0 11 -7 20 -15 20 -8 0
-15 -9 -15 -20z"/>
<path d="M1244 49 c-10 -17 13 -36 27 -22 12 12 4 33 -11 33 -5 0 -12 -5 -16
-11z"/>
</g>
</svg>
